<?xml version="1.0" encoding="UTF-8"?>
<svg id="Layer_2" data-name="Layer 2" xmlns="http://www.w3.org/2000/svg" viewBox="0 0 1000 1000">
  <g>
    <g>
      <rect x="173.16" y="73.09" width="37.18" height="825.38" fill="#d1d1d1"/>
      <rect x="829.69" y="73.09" width="37.18" height="825.38" fill="#d1d1d1"/>
    </g>
    <g>
      <g>
        <path d="m938.13,187.16c0,13.15-1.32,25.37-3.57,35.51H85.82c-2.25-10.14-3.57-22.36-3.57-35.51,0-35.14,9.39-63.63,20.97-63.63h813.93c11.59,0,20.98,28.49,20.98,63.63Z" fill="#efefef"/>
        <path d="m712.01,187.16c0,13.15-1.32,25.37-3.57,35.51h-18.68c2.25-10.14,3.57-22.36,3.57-35.51,0-35.14-9.39-63.63-20.98-63.63h18.68c11.59,0,20.98,28.49,20.98,63.63Z" fill="#fff"/>
        <path d="m545.98,187.16c0,13.15-1.32,25.37-3.57,35.51h-18.68c2.25-10.14,3.57-22.36,3.57-35.51,0-35.14-9.39-63.63-20.98-63.63h18.68c11.59,0,20.98,28.49,20.98,63.63Z" fill="#fff"/>
        <path d="m269.99,187.16c0,13.15-1.32,25.37-3.57,35.51h-18.68c2.25-10.14,3.57-22.36,3.57-35.51,0-35.14-9.39-63.63-20.98-63.63h18.68c11.59,0,20.98,28.49,20.98,63.63Z" fill="#fff"/>
        <path d="m938.13,187.16c0,13.15-1.32,25.37-3.57,35.51-3.77,16.96-10.16,28.12-17.41,28.12s-13.64-11.15-17.4-28.12c-2.25-10.14-3.57-22.36-3.57-35.51,0-35.14,9.39-63.63,20.97-63.63s20.98,28.49,20.98,63.63Z" fill="#efefef"/>
        <path d="m934.56,222.67c-3.77,16.96-10.16,28.12-17.41,28.12H103.22c-7.24,0-13.64-11.15-17.4-28.12h848.75Z" fill="#e2e2e2"/>
        <path d="m124.2,187.16c0,13.15-1.32,25.37-3.57,35.51-3.77,16.96-10.16,28.12-17.41,28.12s-13.64-11.15-17.4-28.12c-2.25-10.14-3.57-22.36-3.57-35.51,0-35.14,9.39-63.63,20.97-63.63s20.98,28.49,20.98,63.63Z" fill="#d1d1d1"/>
      </g>
      <g>
        <path d="m938.13,357.86c0,13.15-1.32,25.37-3.57,35.51H85.82c-2.25-10.14-3.57-22.36-3.57-35.51,0-35.14,9.39-63.63,20.97-63.63h813.93c11.59,0,20.98,28.49,20.98,63.63Z" fill="#efefef"/>
        <path d="m712.01,357.86c0,13.15-1.32,25.37-3.57,35.51h-18.68c2.25-10.14,3.57-22.36,3.57-35.51,0-35.14-9.39-63.63-20.98-63.63h18.68c11.59,0,20.98,28.49,20.98,63.63Z" fill="#fff"/>
        <path d="m545.98,357.86c0,13.15-1.32,25.37-3.57,35.51h-18.68c2.25-10.14,3.57-22.36,3.57-35.51,0-35.14-9.39-63.63-20.98-63.63h18.68c11.59,0,20.98,28.49,20.98,63.63Z" fill="#fff"/>
        <path d="m269.99,357.86c0,13.15-1.32,25.37-3.57,35.51h-18.68c2.25-10.14,3.57-22.36,3.57-35.51,0-35.14-9.39-63.63-20.98-63.63h18.68c11.59,0,20.98,28.49,20.98,63.63Z" fill="#fff"/>
        <path d="m938.13,357.86c0,13.15-1.32,25.37-3.57,35.51-3.77,16.96-10.16,28.12-17.41,28.12s-13.64-11.15-17.4-28.12c-2.25-10.14-3.57-22.36-3.57-35.51,0-35.14,9.39-63.63,20.97-63.63s20.98,28.49,20.98,63.63Z" fill="#efefef"/>
        <path d="m934.56,393.37c-3.77,16.96-10.16,28.12-17.41,28.12H103.22c-7.24,0-13.64-11.15-17.4-28.12h848.75Z" fill="#e2e2e2"/>
        <path d="m124.2,357.86c0,13.15-1.32,25.37-3.57,35.51-3.77,16.96-10.16,28.12-17.41,28.12s-13.64-11.15-17.4-28.12c-2.25-10.14-3.57-22.36-3.57-35.51,0-35.14,9.39-63.63,20.97-63.63s20.98,28.49,20.98,63.63Z" fill="#d1d1d1"/>
      </g>
    </g>
    <g>
      <path d="m938.13,528.56c0,13.15-1.32,25.37-3.57,35.51H85.82c-2.25-10.14-3.57-22.36-3.57-35.51,0-35.14,9.39-63.63,20.97-63.63h813.93c11.59,0,20.98,28.49,20.98,63.63Z" fill="#efefef"/>
      <path d="m712.01,528.56c0,13.15-1.32,25.37-3.57,35.51h-18.68c2.25-10.14,3.57-22.36,3.57-35.51,0-35.14-9.39-63.63-20.98-63.63h18.68c11.59,0,20.98,28.49,20.98,63.63Z" fill="#fff"/>
      <path d="m545.98,528.56c0,13.15-1.32,25.37-3.57,35.51h-18.68c2.25-10.14,3.57-22.36,3.57-35.51,0-35.14-9.39-63.63-20.98-63.63h18.68c11.59,0,20.98,28.49,20.98,63.63Z" fill="#fff"/>
      <path d="m269.99,528.56c0,13.15-1.32,25.37-3.57,35.51h-18.68c2.25-10.14,3.57-22.36,3.57-35.51,0-35.14-9.39-63.63-20.98-63.63h18.68c11.59,0,20.98,28.49,20.98,63.63Z" fill="#fff"/>
      <path d="m938.13,528.56c0,13.15-1.32,25.37-3.57,35.51-3.77,16.96-10.16,28.12-17.41,28.12s-13.64-11.15-17.4-28.12c-2.25-10.14-3.57-22.36-3.57-35.51,0-35.14,9.39-63.63,20.97-63.63s20.98,28.49,20.98,63.63Z" fill="#efefef"/>
      <path d="m934.56,564.07c-3.77,16.96-10.16,28.12-17.41,28.12H103.22c-7.24,0-13.64-11.15-17.4-28.12h848.75Z" fill="#e2e2e2"/>
      <path d="m124.2,528.56c0,13.15-1.32,25.37-3.57,35.51-3.77,16.96-10.16,28.12-17.41,28.12s-13.64-11.15-17.4-28.12c-2.25-10.14-3.57-22.36-3.57-35.51,0-35.14,9.39-63.63,20.97-63.63s20.98,28.49,20.98,63.63Z" fill="#d1d1d1"/>
    </g>
  </g>
  <g>
    <g>
      <path d="m966.9,638.4c-.63-5.2-3.94-11.02-9.82-11.15-7.1-.15-10.16,6.92-11.7,12.69-1.4,5.23-2.01,10.53-2.23,15.86-7.39,2.72-15.94,3.04-23.39,2.54-7.33-.49-14.67-1.71-21.91-3.55,5.46-21.33,6.52-43.82,2.64-65.48-4.67-26.06-18.8-54.22-45.55-63.11-23.41-7.77-52.98,1.46-59.74,27.22-7.55,28.72,14.08,56.94,34.27,74.69,16.61,14.6,36.27,25.81,57.35,32.56,2.86.92,5.74,1.75,8.65,2.5,4.57,1.18,9.2,2.15,13.87,2.9,11.09,1.79,22.86,2.33,33.74-.9.15,8.68.7,17.4-.03,26.03-2.55,30.06-20.44,56.13-40.13,77.87-9.88,10.91-20.5,21.11-31.22,31.17-4.24,3.98,2.14,10.33,6.36,6.37,21-19.71,42.14-40.25,57-65.17,7.17-12.02,12.79-25.18,15.44-38.97,2.63-13.68,1.33-27.29,1.47-41.02,8.49-4.75,16.17-12.95,14.93-23.05Zm-9.99-1.94c1.63.84,1.24,5.03.83,6.36-.8,2.58-2.74,5.01-4.64,6.88-.09.09-.19.18-.28.27.88-5.89,2.49-14.33,4.09-13.51Zm-67.71,15.82c-17.51-5.7-34.12-14.91-48.06-26.08-11.04-8.84-21.43-19.21-28.75-31.39-6.85-11.4-12.04-25.64-8.52-39,6.63-25.09,38.99-28.75,58.23-16.31,23.62,15.27,31.21,46.94,31.7,73.3.25,13.31-1.33,26.61-4.6,39.48Z" fill="#aa969f"/>
      <path d="m895.47,663.17c-1.39,4.42-2.97,8.77-4.74,13.04-11.65,28.17-30.83,51.78-55.62,69.47-26.14,18.65-56.7,30.42-87.25,39.62-49.81,15-101.46,22.4-153.33,25.7.37-3.06.73-6.08,1.08-9.05,39.53-2.58,78.85-7.6,117.45-16.67,59.06-13.88,124.74-36.13,158.24-90.57,6.56-10.66,11.77-22.12,15.52-34.04,2.86.92,5.74,1.75,8.65,2.5Z" fill="#aa969f"/>
    </g>
    <g>
      <path d="m690.68,441.94c1.36,3.05,71.2,180.36,78.8,195.54,7.59,15.18,87.37,119.42,87.37,119.42l-45.53,68.84s-126.94-100.99-147.61-121.73-87.18-188.85-87.18-188.85l114.16-73.22Z" fill="#ffc7d2"/>
      <g>
        <g>
          <path d="m592.7,366.46s-78.58,66.11-141.1,63.74c-62.5-2.33-117.47-143.59-117.47-143.59,0,0,75.06-.07,84.02-30.36,2.21-7.51,7.72-15.8,7.97-24.07.7-25.09-5.58-49.68-5.58-49.68l89.65,20.01s-.61,3.13-7.44,56.39c-1.64,12.81-.31,26.01,2.7,38.7,9.39,39.96,87.26,68.87,87.26,68.87Z" fill="#ffc7d2"/>
          <path d="m505.44,297.59c-8.06,13.7-15.99,26.21-19.21,28.37-7.66,5.12-32.97-20.83-49.09-56.94-4.67-10.49-8.29-23.56-11.03-36.84.7-25.09-5.58-49.68-5.58-49.68l89.65,20.01s-.61,3.13-7.44,56.39c-1.64,12.81-.31,26.01,2.7,38.7Z" fill="#f47382"/>
        </g>
        <path d="m377.43,133.33c6.16,54.62,47.27,107.65,47.27,107.65l42.5-19.19,147.27-66.48s24.43-31.16,13.46-74.74c-10.98-43.56-37.8-69.86-104.35-79.16-66.53-9.32-124.75,27.81-143.48,92.85-3.64,12.64-4.18,25.89-2.68,39.06Z" fill="#473f6b"/>
        <path d="m377.43,133.33c6.16,54.62,47.27,107.65,47.27,107.65l42.5-19.19c-6.59-48.19-25.03-83.84-25.03-83.84,0,0-31.32,1.27-64.74-4.62Z" fill="#473f6b"/>
        <path d="m372.77,190.68c5.36,21.5,46.73,17.26,46.73,17.26,0,0,.02.08.06.29.93,3.78,10.48,41.47,22.58,58.01,7.99,10.94,27.39,24.16,46.46,34.19h.02c5.96,1.88,18.2,7.43,35.48,9.56,17.3,2.11,33.85,1.05,55.57-29.57,21.02-29.64,26.09-66.27,26.36-68.54l.02-.11c.32-5.01.27-9.19.01-12.32-.72-10.11,3-17.6,5.88-28.89,2.46-9.69,3.51-39.1,3.77-47.07,0,0-4.69,6.75-23.67,10.02-18.96,3.26-26.09,1.34-21.35-1.94,4.4-3.06,14.36-10.69,15.64-11.69-1.5.96-14.21,8.75-39.3,10.55-26.76,1.91-37.27,1.62-36.62-1.78.6-3.24,9.48-10.52,10.25-11.15-1.51.92-26,15.75-46.36,20.96-15.63,3.99-27.2,1.17-32.11-.51-.11,2.19-.22,4.45-.36,6.78-.54,5.59-1.05,11.96-1.06,17.4-.78,11.4-1.53,20.74-2.23,21.51-1.67,1.98-5.42,1.32-8.35-.03-2.96-1.32-2.79-21.14-4.75-25.22-1.96-4.15-21.69-7.93-34.1-4.2-12.34,3.78-23.87,14.96-18.55,36.48Z" fill="#ffc7d2"/>
        <path d="m403.87,198.53c-.91,0-1.98-.11-3.21-.36-5.3-1.08-13.01-9.25-15.01-18.15-1.09-4.86-.89-11.78,6.26-17.15,4.15-3.12,8.39-4.19,12.59-3.18,8.88,2.12,14.24,12.81,14.46,13.26.37.74.06,1.64-.68,2.01-.74.37-1.64.06-2.01-.68-.05-.1-4.97-9.89-12.48-11.67-3.29-.79-6.68.11-10.08,2.67-5.87,4.41-6.04,10.09-5.14,14.09,1.81,8.07,8.83,15.08,12.68,15.87,3.06.63,4.82.17,5.21-.57.3-.57-.08-1.56-.9-2.36l-.66-.63c-2.77-2.64-7.4-7.06-2.79-12.05,2.23-2.41,4.31-2.62,5.67-2.38,2.51.45,4.26,2.71,5.01,4.51,1.04,2.52,1.37,4.39,1.38,4.47.14.82-.41,1.59-1.23,1.73-.82.14-1.59-.41-1.73-1.23,0-.01-.29-1.64-1.19-3.83-.49-1.18-1.59-2.49-2.76-2.7-.9-.16-1.89.33-2.94,1.47-2.24,2.43-1.05,4.3,2.66,7.84l.68.65c1.84,1.79,2.41,4.11,1.46,5.91-.54,1.02-1.89,2.46-5.25,2.46Z" fill="#f47382"/>
        <path d="m440.34,168.04s3.46,30.65,4.58,31.69c1.12,1.04,46.35.56,64.82,10.97,18.48,10.41,28.97,23.84,28.97,23.84,0,0,16.98-1.8,28,5.39,11.02,7.19,8.72,5.56,17.56,7.9,8.84,2.33,11.72,1.6,11.72,1.6,0,0-8.55,52.82-40.42,64.85s-88.45,1.74-118.43-45.27c-29.99-47-32.97-62.25-32.97-62.25,0,0,13.97,4.11,18.8-1.23,4.83-5.34,5-43.71,5-43.71l12.37,6.22Z" fill="#473f6b"/>
        <g>
          <ellipse cx="517.25" cy="169.61" rx="11.47" ry="7.74" transform="translate(219.98 625.63) rotate(-75.06)" fill="#473f6b"/>
          <ellipse cx="583.14" cy="182.94" rx="10.19" ry="7.09" transform="translate(256.01 699.17) rotate(-75.06)" fill="#473f6b"/>
          <path d="m554.01,255.63c-3.72,6.1-9.11,10.64-15.25,13.27-8.87,3.94-19.35,4.06-28.7-.58-7.51-3.71-13.01-9.84-16.05-17.02-3.41-7.96-3.78-17.14-.44-25.63.43-1.05,1.36-1.63,2.39-1.69.5-.06,1.01.03,1.49.25l55.33,27.46c.77.4,1.27,1.07,1.46,1.8.25.7.19,1.46-.23,2.13Z" fill="#ba4959"/>
          <path d="m554.24,253.5c-7.81,1.95-19.65.29-31.65-5.01-14.55-6.46-24.92-16.38-26.63-24.51.5-.06,1.01.03,1.49.25l55.33,27.46c.77.4,1.27,1.07,1.46,1.8Z" fill="#fff"/>
          <path d="m538.76,268.9c-8.87,3.94-19.35,4.06-28.7-.58-7.51-3.71-13.01-9.84-16.05-17.02,6.08-.95,12.9-.64,19.79,1.21,10.97,2.93,19.82,9.09,24.96,16.39Z" fill="#f47382"/>
          <ellipse cx="521.63" cy="165.93" rx="5.03" ry="3.28" transform="translate(226.78 627.12) rotate(-75.05)" fill="#fff"/>
          <ellipse cx="587.66" cy="180.77" rx="5.03" ry="3.28" transform="translate(261.45 701.92) rotate(-75.05)" fill="#fff"/>
          <path d="m547.58,229.96c-1.36-.25-2.33-.49-2.67-.58-1.22-.33-1.94-1.58-1.62-2.79.32-1.22,1.58-1.95,2.79-1.62,3.23.86,12.38,2.29,15.93-1.32,3.08-3.13,2.01-5.12-3.89-12.25-.47-.57-.96-1.16-1.46-1.77-6.81-8.34-.12-21.5.17-22.05.58-1.12,1.96-1.56,3.08-.98,1.12.58,1.56,1.96.98,3.08h0c-.06.11-5.6,11.05-.69,17.07.49.6.97,1.18,1.44,1.75,5.1,6.16,9.91,11.98,3.63,18.37-4.62,4.7-13.25,3.91-17.7,3.11Z" fill="#f47382"/>
          <g>
            <path d="m509.19,147.06c-.64-.11-1.22-.5-1.57-1.1-.64-1.09-.27-2.49.82-3.12,9.61-5.6,21.8-.74,22.32-.53,1.17.48,1.73,1.81,1.25,2.98-.48,1.17-1.81,1.72-2.97,1.25h0c-.11-.04-10.64-4.22-18.29.24-.49.28-1.04.37-1.55.27Z" fill="#473f6b"/>
            <path d="m599.2,165.84c-.82-.15-1.52-.74-1.78-1.59-.12-.39-2.88-8.67-14.43-7.59-1.26.12-2.37-.81-2.49-2.06-.12-1.26.81-2.37,2.06-2.49,12.32-1.15,17.96,6.58,19.22,10.82.36,1.21-.33,2.48-1.54,2.84-.35.11-.71.12-1.05.06Z" fill="#473f6b"/>
          </g>
        </g>
      </g>
      <path d="m589.46,311.72s34.95,12.19,53.61,39.1c18.66,26.91,75.71,123.8,73.56,133.48-2.15,9.69-37.14,57.05-50.59,67.82-13.46,10.76-47.9,21.19-47.9,21.19l-60.6-90.09,31.93-171.51Z" fill="#ff8b00"/>
      <path d="m604.67,561.45s30.5-16.86,38.39-26.55c7.89-9.69,62.86-68.64,67.13-68.59,4.27.05,14.68,17.63,14.68,21.22s-48.44,66.02-60.28,73.92-54.68,22.61-54.68,22.61l-5.25-22.61Z" fill="#ffb400"/>
      <g>
        <path d="m578.6,838.07l-356.29-49.18-4.54-122.16,24.37-169.21-17.45-72.67-18.04-101.44s17.99-28.65,64.41-36.75c0,0,50.9-9.31,70.26-13.54,19.34-4.24,47.47,7.81,47.47,7.81,0,0,19.69,53.19,83.14,70.53,63.46,17.34,62.81-49.75,62.81-49.75,0,0,24.02,2.08,51.17,4.6,0,0,35,44.79,40.76,80.7,4.82,30.03-2.93,46.09-4.17,65-5.77.45-9.33.72-9.33.72,0,0-1.24,23.85-3.25,57.17-3.38,56.2-8.91,139.34-14.29,180.46-8.55,65.51-17.03,147.72-17.03,147.72Z" fill="#ff8b00"/>
        <g>
          <path d="m387.03,315.03c-.07.47-.13.92-.08,1.39s.11.95.27,1.4c.3.88.78,1.7,1.46,2.35.28.27.67.44,1.06.44.37,0,.81-.16,1.06-.44.54-.59.6-1.54,0-2.12-.15-.14-.29-.3-.42-.46l.23.3c-.22-.29-.4-.6-.54-.93l.15.36c-.15-.35-.25-.72-.3-1.09l.05.4c-.05-.38-.05-.75,0-1.13l-.05.4v-.06c.07-.42.08-.78-.14-1.16-.18-.31-.54-.61-.9-.69-.38-.09-.81-.07-1.16.15-.3.2-.63.52-.69.9h0Z" fill="#ce430d"/>
          <path d="m401.38,338.91c9.68,9.98,20.93,18.43,33.17,25.02s25.49,11.36,39.14,14.02c7.69,1.5,15.5,2.34,23.34,2.48,1.93.04,1.93-2.96,0-3-13.59-.26-27.08-2.65-39.96-6.99-12.87-4.33-25.09-10.61-36.11-18.55-6.25-4.5-12.09-9.58-17.46-15.11-1.35-1.39-3.47.73-2.12,2.12h0Z" fill="#ce430d"/>
          <path d="m498.55,381.48c-15.83,7.81-32.33,14.24-49.28,19.2-4.79,1.4-9.61,2.68-14.47,3.85-1.88.45-1.08,3.35.8,2.89,17.34-4.18,34.3-9.86,50.66-16.96,4.65-2.02,9.25-4.15,13.8-6.39,1.73-.85.21-3.44-1.51-2.59h0Z" fill="#ce430d"/>
        </g>
        <path d="m578.6,838.08l-356.29-49.18-4.54-122.16,24.37-169.21-17.45-72.67c22.67-7.63,26.89-14.59,58.19-10.98,0,0,10.14,70.31,22.39,72.82,9.17,1.87,206.17,16.14,304.65,23.2-3.38,56.2-8.91,139.34-14.29,180.46-8.55,65.51-17.03,147.72-17.03,147.72Z" fill="#e85f34"/>
      </g>
      <path d="m622.41,471.5c-1.5,31.76-18.27,257.34-18.27,257.34,0,0-3.57,31.88-8.53,73.11-.35,2.97-.71,5.99-1.08,9.05-8.44,69.62-20.19,160.04-25.63,172-9,19.79-107.96,17.83-213.93,15.74-105.97-2.09-200.7-51.74-207.09-56.18-6.39-4.43-5.4-11.31,8.66-47.93,3.76-9.79,6.39-21.11,8.27-32.67.47-2.95.9-5.92,1.29-8.88,3.79-28.81,3.59-57.17,5.4-65.67,1.07-5.05,7.25-23.58,14.32-44.15.98-2.84,1.97-5.73,2.98-8.62,10.07-29.12,20.77-59.12,20.77-59.12,0,0,.46-47.95,2.03-58.84,1.57-10.9,6.02-20.59,25.94-33.74,19.92-13.15,21.74-12.68,31.55-24.55,9.81-11.86,52.84-93.87,52.84-93.87,0,0,11.19-32.93,11.65-80.88.47-47.94-29.8-103.08-29.8-103.08,0,0,31.47-11.44,42.21-12.82s9.25,22.41,25.36,61.03c16.1,38.62,30.54,96.91,35.94,104.13,5.4,7.22,109.48,12.26,122.24,2.97,12.75-9.29,12.11-21.09,16-52.15,3.89-31.06-1.24-83.37.19-85.11,1.42-1.75,32.88,4.73,37.09,5.34,4.21.6,5.53.04,8.85,18.3,5.92,32.59-.59,82.67-.59,82.67,0,0,2.79.99,23.07,10.61,20.28,9.62,9.77,24.21,8.27,55.97Z" fill="#473f6b"/>
      <path d="m386.68,412.75l-33.99,5.46c-4.36.7-7.31,4.92-6.59,9.43l3.45,21.46c.72,4.49,4.85,7.58,9.21,6.88l33.99-5.46c4.36-.7,7.31-4.92,6.59-9.42l-3.45-21.46c-.72-4.5-4.85-7.59-9.21-6.89Zm3.05,25.07c.37,2.34-1.16,4.53-3.43,4.89l-23.86,3.83c-2.27.36-4.42-1.24-4.79-3.57l-1.94-12.06c-.38-2.35,1.16-4.54,3.43-4.9l23.86-3.83c2.27-.36,4.42,1.24,4.79,3.59l1.94,12.06Z" fill="#ad6477"/>
      <path d="m588.56,401.18l-33.99,5.46c-4.36.7-7.31,4.92-6.59,9.43l3.45,21.46c.72,4.49,4.85,7.58,9.21,6.88l33.99-5.46c4.36-.7,7.31-4.92,6.59-9.42l-3.45-21.46c-.72-4.5-4.85-7.59-9.21-6.89Zm3.05,25.07c.37,2.34-1.16,4.53-3.43,4.89l-23.86,3.83c-2.27.36-4.42-1.24-4.79-3.57l-1.94-12.06c-.38-2.35,1.16-4.54,3.43-4.9l23.86-3.83c2.27-.36,4.42,1.24,4.79,3.59l1.94,12.06Z" fill="#ad6477"/>
      <path d="m351.55,512.87s14.18,8.33,94.69,7.81c80.52-.52,137.22-23.35,143.46-8.58,6.24,14.77,2.2,96.57-7.66,109.83-9.86,13.26-67.41,26.51-139.86,26.11-72.45-.4-104.67-4.23-107.38-18.89-2.71-14.67,1.73-120.04,16.75-116.27Z" fill="#ad6477"/>
      <g>
        <g>
          <path d="m545.37,445.56c-18.15,10.66-38.4,16.81-58.6,22.29-21.8,5.91-43.74,11.31-65.79,16.19-12.45,2.76-24.94,5.35-37.45,7.77-1.89.37-1.09,3.26.8,2.89,22.39-4.34,44.67-9.21,66.83-14.6,11.04-2.69,22.05-5.5,33.02-8.45,10.2-2.74,20.39-5.57,30.38-9.02,11.18-3.85,22.12-8.49,32.33-14.48,1.66-.98.16-3.57-1.51-2.59h0Z" fill="#ad6477"/>
          <path d="m361.07,499.35c19.45.55,38.91.81,58.37.79,5.49,0,10.98-.04,16.46-.09,1.93-.02,1.93-3.02,0-3-19.46.19-38.92.09-58.37-.3-5.49-.11-10.97-.24-16.46-.4-1.93-.05-1.93,2.95,0,3h0Z" fill="#ad6477"/>
          <path d="m500.97,507.62c4.7-.1,9.4-.21,14.1-.31,1.93-.04,1.93-3.04,0-3-4.7.1-9.4.21-14.1.31-1.93.04-1.93,3.04,0,3h0Z" fill="#1f1947"/>
          <path d="m211.55,776.79c8.37,23.24,18.91,45.69,31.45,66.97,12.47,21.16,26.9,41.16,43.03,59.67,9.08,10.42,18.71,20.35,28.84,29.76,1.41,1.31,3.54-.8,2.12-2.12-17.91-16.63-34.27-34.93-48.78-54.6s-27.19-40.65-37.85-62.64c-5.97-12.32-11.28-24.95-15.92-37.84-.65-1.8-3.55-1.03-2.89.8h0Z" fill="#ad6477"/>
          <path d="m220.95,785.49c11.82,12.53,26.02,22.75,41.67,29.95,1.74.8,3.27-1.78,1.51-2.59-15.44-7.1-29.4-17.12-41.06-29.48-1.33-1.41-3.45.72-2.12,2.12h0Z" fill="#1f1947"/>
          <path d="m315.02,826.35c26.88,5.51,53.84,10.6,80.88,15.27,27.04,4.67,54.15,8.92,81.32,12.74,15.26,2.15,30.54,4.16,45.84,6.05,1.91.24,1.89-2.77,0-3-27.1-3.34-54.14-7.09-81.13-11.27-27.03-4.19-54-8.79-80.89-13.82-15.1-2.82-30.18-5.78-45.22-8.86-1.88-.39-2.69,2.51-.8,2.89h0Z" fill="#ad6477"/>
          <path d="m553.4,871.44c-18.68,16.14-39.71,29.33-61.72,40.42-22.23,11.2-45.43,20.32-68.86,28.66-13.14,4.67-26.36,9.1-39.58,13.51-1.82.61-1.04,3.51.8,2.89,23.9-7.97,47.81-16,71.19-25.43,23.05-9.29,45.63-19.94,66.69-33.18,11.79-7.42,23.08-15.65,33.62-24.75,1.46-1.26-.67-3.38-2.12-2.12h0Z" fill="#1f1947"/>
          <path d="m562.35,895.97c-8.27,6.94-17.37,12.83-27.06,17.58-1.73.85-.21,3.44,1.51,2.59,9.92-4.87,19.2-10.95,27.67-18.05,1.48-1.24-.65-3.35-2.12-2.12h0Z" fill="#1f1947"/>
          <path d="m573.56,555.89c-12.38,13.98-25.71,27.12-39.87,39.29-4.02,3.46-8.11,6.83-12.26,10.13-1.51,1.2.62,3.31,2.12,2.12,14.62-11.62,28.45-24.22,41.36-37.72,3.67-3.83,7.25-7.74,10.77-11.7,1.28-1.44-.84-3.57-2.12-2.12h0Z" fill="#1f1947"/>
        </g>
        <g>
          <path d="m260.55,581.89c22.96,6.4,45.94,12.77,69.23,17.87s46.54,8.87,70.17,10.07c13.32.67,26.67.49,39.95-.73,1.91-.18,1.92-3.18,0-3-23.48,2.16-47.15,1.03-70.48-2.19-23.42-3.24-46.51-8.47-69.38-14.39-12.94-3.35-25.82-6.93-38.7-10.52-1.86-.52-2.66,2.37-.8,2.89h0Z" fill="#1f1947"/>
          <path d="m288.53,601.53c16.25,3.61,32.33,7.97,48.18,13.07,1.84.59,2.63-2.3.8-2.89-15.85-5.1-31.92-9.46-48.18-13.07-1.88-.42-2.68,2.47-.8,2.89h0Z" fill="#1f1947"/>
        </g>
      </g>
      <g>
        <path d="m259.89,801.77s18.29,11.28,15.16,24.88c-3.13,13.6-28.9,46.19-61.21,63.2-32.31,17.01-41.81,5.69-40.57-2.92,1.24-8.6,11.64-3.59,43.31-32.41,31.67-28.81,43.31-52.76,43.31-52.76Z" fill="#ad6477"/>
        <path d="m548.47,855.21s4.49,36.32,13.54,51.54c9.05,15.23,12.58,24.51,16.64,18.07s4.52-31.36,4.52-31.36c0,0-8.31-26.18-13.48-41.17-5.17-14.99-20.1-8.92-21.22,2.91Z" fill="#ad6477"/>
      </g>
      <g>
        <path d="m635.81,756.98l-18.79,3.27c-3.46.6-6.75-1.73-7.35-5.18l-9.99-57.51c-.71-4.11-3.63-7.44-7.61-8.67l-145.93-45.47,9.45-30.33,145.93,45.46c15.41,4.8,26.7,17.66,29.46,33.56l10,57.51c.6,3.46-1.73,6.75-5.18,7.35Z" fill="#8d788e"/>
        <path d="m277.53,809.23l127.32-165.55,39.83,26.22-134.51,165.16c-7.23,8.88-20.27,10.25-29.19,3.08h0c-8.82-7.09-10.36-19.94-3.45-28.91Z" fill="#aa969f"/>
        <path d="m490.46,640.52l-28.17,39.87-78.66-33.21,48.85-51.96c9.54-10.16,25.05-11.91,36.62-4.14l13.97,9.38c13.28,8.91,16.61,27.02,7.38,40.07Z" fill="#aa969f"/>
        <g>
          <path d="m229.52,473.58l-20.76,88.65s21.77,16.51,50.41,34.04c28.64,17.53,70.91,32.79,70.91,32.79l-88.66,55.19s-37.84,4.93-94.42-19.1c-56.58-24.02-49.84-52.29-59.64-67.81-9.8-15.52-7.01-36.98-5.85-39.54s22.79-76.5,40.91-119.76c18.11-43.26,107.11,35.52,107.11,35.52Z" fill="#ffc7d2"/>
          <g>
            <path d="m208.94,561.03c-21.24-3.2-43.04-2.02-63.82,3.38-5.9,1.53-11.7,3.41-17.38,5.62-2.04.79-.78,3.96,1.27,3.16,19.6-7.61,40.74-11.21,61.76-10.45,5.92.22,11.82.78,17.68,1.66,2.17.33,2.67-3.04.5-3.37h0Z" fill="#f47382"/>
            <path d="m204.97,563.43c-11.54,1.64-23.08,3.28-34.62,4.92-2.16.31-1.76,3.69.41,3.38,11.54-1.64,23.08-3.28,34.62-4.92,2.16-.31,1.76-3.69-.41-3.38h0Z" fill="#f47382"/>
          </g>
          <path d="m195.14,687c-3.22-.21-5.36-3.4-4.34-6.46,7.84-23.42,36.73-106.34,50.32-99.54,15.82,7.91,28.92,16.31,33.3,18.42,4.37,2.11,62.17,29.15,68.2,28,6.03-1.16,41.76-6.98,47.43-9.66,5.67-2.67,24.49-5.15,25.35-5.02s-6.1,21.36-6.1,21.36l34.28,25.6,29.79,8.52s-4.07,17.56-8.98,22.98c-4.91,5.42-16.5,4.58-16.5,4.58,0,0-2.04,5.85-6.72,7.79-4.68,1.94-11.12,1.86-11.12,1.86,0,0-2.6,11.62-7.82,13.19s-6.98,1.6-6.98,1.6c0,0-4.48,10.47-9.65,11.75s-10.49,5.18-23.5,3.25c-13.02-1.93-51.6-28.17-76.84-35.72-21.21-6.35-89.01-11.13-110.12-12.5Z" fill="#ffb400"/>
          <g>
            <path d="m436.15,692.01c3.59,1.7,7.3,3.17,11.09,4.37.77.25,1.64-.29,1.85-1.05.22-.81-.27-1.6-1.05-1.85-3.54-1.13-7.01-2.48-10.37-4.07-.73-.35-1.62-.2-2.05.54-.38.65-.2,1.7.54,2.05h0Z" fill="#ce430d"/>
            <path d="m417.94,701.43c1.86,1.05,3.71,2.12,5.62,3.09s3.97,2.01,6.1,2.36c.8.13,1.61-.21,1.85-1.05.2-.72-.24-1.71-1.05-1.85-.93-.15-1.83-.47-2.71-.81-.32-.13-.18-.07-.51-.21-.25-.11-.49-.22-.74-.33-.53-.25-1.06-.5-1.58-.77-1.85-.94-3.66-1.99-5.47-3.01-1.68-.95-3.2,1.64-1.51,2.59h0Z" fill="#ce430d"/>
            <path d="m402.28,717.22c2.06.94,4.16,1.79,6.31,2.5s4.19,1.29,6.27,1.95c1.84.59,2.63-2.31.8-2.89-4.01-1.28-8.02-2.41-11.86-4.15-.74-.33-1.61-.21-2.05.54-.38.64-.2,1.72.54,2.05h0Z" fill="#ce430d"/>
            <path d="m442.68,673.92c-11.16,15.69-25.32,29.24-41.46,39.73-4.61,3-9.38,5.74-14.28,8.23-1.72.87-.2,3.46,1.51,2.59,17.56-8.93,33.43-21.2,46.47-35.98,3.68-4.16,7.12-8.53,10.34-13.05,1.12-1.58-1.48-3.08-2.59-1.51h0Z" fill="#ce430d"/>
            <path d="m408.12,633.44c-5.51,1.13-11.02,2.26-16.52,3.38-1.89.39-1.09,3.28.8,2.89,5.51-1.13,11.02-2.26,16.52-3.38,1.89-.39,1.09-3.28-.8-2.89h0Z" fill="#ce430d"/>
          </g>
        </g>
        <circle cx="454.07" cy="625.12" r="12.55" fill="#fff"/>
        <path d="m367.44,761.99l5.8,6.81c3.77,4.43,3.78,10.94.02,15.39l-36.49,43.11c-3.26,3.86-8.61,5.23-13.33,3.42l-6.91-2.65c-7.5-2.88-10.05-12.21-5.05-18.5l37.6-47.27c4.66-5.86,13.5-6,18.35-.31Z" fill="#8d788e"/>
      </g>
      <g>
        <path d="m255.82,293.37s60.38,45.47,35.68,108.96c-24.7,63.49-63.77,128.93-63.77,128.93,0,0-22.83-23.11-51.04-34.84-28.21-11.73-74.92-26.73-74.92-26.73,0,0,39.98-83.23,72.89-123.39,32.91-40.17,61.97-58.58,81.17-52.94Z" fill="#ff8b00"/>
        <path d="m98.36,474.89s1.47-23.51,6.45-22.42,24.95,4.79,62.84,23.09c37.89,18.3,70.62,44.66,69.25,48.16-1.37,3.5-10.46,16.84-12.34,16.89-1.88.04-42.05-26.51-75.23-37.62s-54.58-17.52-50.98-28.1Z" fill="#ffb400"/>
        <g>
          <path d="m269.08,339.84c14.23,21.57,19.03,48.79,13.8,74.03-1.47,7.09-3.75,13.98-6.8,20.55-.88,1.9,2.05,3.29,2.93,1.39,11.25-24.2,12.06-52.77,2.87-77.76-2.59-7.05-6-13.81-10.14-20.08-1.15-1.75-3.81.12-2.66,1.86h0Z" fill="#ce430d"/>
          <path d="m253.55,385.5c4.31,6.36,8.62,12.72,12.93,19.08,1.17,1.73,3.83-.13,2.66-1.86l-12.93-19.08c-1.17-1.73-3.83.13-2.66,1.86h0Z" fill="#ce430d"/>
        </g>
      </g>
      <path d="m632.88,376.38c-.54,16.81-3.3,33.47-8.18,49.57-.56,1.85,2.33,2.64,2.89.8,4.96-16.34,7.74-33.3,8.29-50.36.06-1.93-2.94-1.93-3,0h0Z" fill="#ce430d"/>
      <g>
        <path d="m763.75,638.19c-16.68,8.9-32.51,19.34-47.28,31.14-4.22,3.37-8.36,6.86-12.4,10.45-1.45,1.28.68,3.4,2.12,2.12,14-12.43,29.12-23.57,45.16-33.23,4.57-2.75,9.21-5.38,13.91-7.89,1.7-.91.19-3.5-1.51-2.59h0Z" fill="#f47382"/>
        <path d="m764.39,637.05c-8.16,9.07-14.91,19.33-19.97,30.43-.79,1.74,1.79,3.27,2.59,1.51,4.95-10.87,11.51-20.94,19.5-29.82,1.29-1.43-.83-3.56-2.12-2.12h0Z" fill="#f47382"/>
      </g>
      <path d="m472.72,32.64s48.64-6.4,101.12,7.68c52.48,14.08,64.64,36.48,67.2,51.84s-8.32,84.48-21.12,138.88c-12.8,54.4-34.9,104.85-45.29,106.82s-107.03-13.39-143.51-33.22c-36.48-19.84-29.79-41.91-28.97-50.07s46.24-220.49,70.57-221.92Z" fill="#aa969f"/>
      <path d="m463.45,162.45s8.45-52.36,17.77-52.36,146.96,31.51,148.42,52.36-6.12,48.73-13.18,51.51-155.48-38.28-153.02-51.51Z" fill="#8d788e"/>
      <path d="m612.82,169.77c-.03.36-.05.73-.08,1.09-1,12.65-7.03,26.57-14.85,24.69-2.78-.66-17.3-5.5-35.1-11.56-4.15-1.42-8.47-2.9-12.87-4.4-12.73-4.35-26.08-8.94-37.44-12.86-4.66-1.6-9-3.1-12.81-4.41-2.95-1.03-5.59-1.94-7.85-2.72-.75-.26-1.47-.51-2.13-.74-2.44-.84-4.19-2.87-4.75-5.23-.28-1.17-.26-2.42.08-3.65,1.49-5.38,2.95-18.32,6.23-18.8,2.18-.33,21.49,3.57,44.13,9.2,4.88,1.2,9.9,2.51,14.94,3.85,2.98.79,5.95,1.6,8.91,2.44,4.78,1.33,9.5,2.71,14.02,4.1,15,4.6,28.01,9.37,34.73,13.56,3.17,1.97,4.93,3.8,4.84,5.43Z" fill="#bfbabd"/>
      <path d="m435.9,114.83s-18.43,3.99-34.75,15.51-20.4,21.35-20.4,21.35v7.25s22.56-10.04,44.68-.55l10.47-43.57Z" fill="#8d788e"/>
      <g>
        <path d="m550.32,144.24c-3.58.95-7.18,1.89-10.77,2.83-15.92,4.17-31.82,8.36-47.73,12.53-.75-.26-1.47-.51-2.13-.74-2.44-.84-4.19-2.87-4.75-5.23,16.81-4.42,33.63-8.84,50.43-13.25,4.88,1.2,9.9,2.51,14.94,3.85Z" fill="#e2e2e2"/>
        <path d="m573.25,150.79c-20.27,5.31-40.52,10.64-60.77,15.95-4.66-1.6-9-3.1-12.81-4.41,2.47-.65,4.95-1.3,7.42-1.96,17.37-4.56,34.75-9.12,52.14-13.69,4.78,1.33,9.5,2.71,14.02,4.1Z" fill="#e2e2e2"/>
        <path d="m612.82,169.77c-.03.36-.05.73-.08,1.09-.4.11-.81.23-1.22.33-16.24,4.26-32.49,8.53-48.74,12.81-4.15-1.42-8.47-2.9-12.87-4.4,19.36-5.09,38.71-10.16,58.06-15.25,3.17,1.97,4.93,3.8,4.84,5.43Z" fill="#e2e2e2"/>
      </g>
    </g>
    <g>
      <path d="m966.88,929.55c0,14.56-1.46,28.09-3.95,39.32H23.18c-2.49-11.23-3.95-24.76-3.95-39.32,0-38.91,10.4-70.45,23.22-70.45h901.2c12.83,0,23.23,31.54,23.23,70.45Z" fill="#e2e2e2"/>
      <path d="m716.51,929.55c0,14.56-1.46,28.09-3.95,39.32h-20.68c2.49-11.23,3.95-24.76,3.95-39.32,0-38.91-10.4-70.45-23.23-70.45h20.68c12.83,0,23.23,31.54,23.23,70.45Z" fill="#efefef"/>
      <path d="m532.68,929.55c0,14.56-1.46,28.09-3.95,39.32h-20.68c2.49-11.23,3.95-24.76,3.95-39.32,0-38.91-10.4-70.45-23.23-70.45h20.68c12.83,0,23.23,31.54,23.23,70.45Z" fill="#efefef"/>
      <path d="m227.11,929.55c0,14.56-1.46,28.09-3.95,39.32h-20.68c2.49-11.23,3.95-24.76,3.95-39.32,0-38.91-10.4-70.45-23.23-70.45h20.68c12.83,0,23.23,31.54,23.23,70.45Z" fill="#efefef"/>
      <path d="m966.88,929.55c0,14.56-1.46,28.09-3.95,39.32-4.17,18.78-11.25,31.13-19.28,31.13s-15.1-12.35-19.27-31.13c-2.49-11.23-3.95-24.76-3.95-39.32,0-38.91,10.4-70.45,23.22-70.45s23.23,31.54,23.23,70.45Z" fill="#e2e2e2"/>
      <path d="m962.93,968.87c-4.17,18.78-11.25,31.13-19.28,31.13H42.45c-8.02,0-15.1-12.35-19.27-31.13h939.75Z" fill="#cccacb"/>
      <path d="m65.68,929.55c0,14.56-1.46,28.09-3.95,39.32-4.17,18.78-11.25,31.13-19.28,31.13s-15.1-12.35-19.27-31.13c-2.49-11.23-3.95-24.76-3.95-39.32,0-38.91,10.4-70.45,23.22-70.45s23.23,31.54,23.23,70.45Z" fill="#aa969f"/>
      <path d="m675.75,859.1c-2.29,18.84-14.89,34.58-32.81,38.47-23.28,5.07-46.73-11.79-52.36-37.67-.06-.27-.11-.53-.16-.8h85.33Z" fill="#aa969f"/>
    </g>
    <g>
      <path d="m712.57,841.8l-49.09,14.6c-.49.14-.74.69-.52,1.15l36.95,79.7c.42.89-.76,1.64-1.4.9l-44.51-52.47c-.48-.57-1.42-.26-1.47.48l-3.46,46.74c-.07.98-1.48,1.06-1.66.09l-9.12-50.59c-.12-.68-.97-.93-1.44-.42l-27.82,29.89c-.64.69-1.75-.04-1.38-.91l19.94-46.24c.29-.68-.37-1.37-1.06-1.12l-55.96,20.36c-.88.32-1.54-.83-.83-1.43l36.3-30.68c.5-.42.34-1.22-.27-1.43l-36.12-12.3c-.85-.29-.72-1.52.17-1.63l47.69-5.68c.59-.07.92-.7.64-1.22l-25.71-48.49c-.46-.87.69-1.68,1.36-.96l26.01,28.42c.4.44,1.12.33,1.38-.21l18.57-39.31c.39-.81,1.6-.54,1.6.36v49.52c0,.69.77,1.08,1.33.68l38.29-27.41c.72-.51,1.64.27,1.24,1.06l-18.68,37.37c-.25.5.05,1.11.6,1.2l48.33,8.35c.88.15.95,1.38.1,1.63Z" fill="#ffb400"/>
      <circle cx="663.47" cy="771.13" r="7.32" fill="#ffb400"/>
      <circle cx="614.92" cy="772.79" r="1.66" fill="#ffb400"/>
      <circle cx="615.47" cy="786.45" r="2.21" fill="#ffb400"/>
      <circle cx="659.38" cy="794.62" r="3.23" fill="#ffb400"/>
      <circle cx="709.26" cy="806.36" r="8.51" fill="#ffb400"/>
      <circle cx="703.13" cy="831.89" r="2.38" fill="#ffb400"/>
      <circle cx="570.46" cy="795.72" r="7.06" fill="#ffb400"/>
    </g>
    <g>
      <path d="m596.96,887.17c-6.66,5.17-13.75,9.77-21.14,13.81-1.69.93-.18,3.52,1.51,2.59,7.63-4.17,14.88-8.96,21.75-14.28.65-.5.52-1.59,0-2.12-.62-.64-1.48-.49-2.12,0h0Z" fill="#aa969f"/>
      <path d="m595.2,904.53c-6.86,5.26-13.35,10.97-19.41,17.14-1.35,1.38.77,3.5,2.12,2.12,5.87-5.98,12.15-11.57,18.8-16.67.64-.49.98-1.29.54-2.05-.37-.63-1.41-1.03-2.05-.54h0Z" fill="#aa969f"/>
      <path d="m603.9,927.83c-1.55,3.06-3.09,6.11-4.64,9.17-.35.7-.21,1.66.54,2.05.68.36,1.67.21,2.05-.54,1.55-3.06,3.09-6.11,4.64-9.17.35-.7.21-1.66-.54-2.05-.68-.36-1.67-.21-2.05.54h0Z" fill="#aa969f"/>
      <path d="m629.29,911.47c-.54,6.64-1.08,13.27-1.63,19.91-.16,1.92,2.84,1.91,3,0,.54-6.64,1.08-13.27,1.63-19.91.16-1.92-2.84-1.91-3,0h0Z" fill="#aa969f"/>
      <path d="m657.09,946.08l1.28,3.57c.13.37.34.69.69.9.32.19.8.27,1.16.15s.71-.34.9-.69.29-.78.15-1.16l-1.28-3.57c-.13-.37-.34-.69-.69-.9-.32-.19-.8-.27-1.16-.15s-.71.34-.9.69-.29.78-.15,1.16h0Z" fill="#aa969f"/>
      <path d="m662.27,905.88c4.07,8.89,8.89,17.41,14.41,25.47,1.08,1.58,3.68.09,2.59-1.51-5.52-8.07-10.34-16.59-14.41-25.47-.8-1.75-3.39-.23-2.59,1.51h0Z" fill="#aa969f"/>
      <path d="m684.77,890.33c1.45,1.62,2.9,3.23,4.34,4.85.53.59,1.59.57,2.12,0,.57-.63.56-1.5,0-2.12-1.45-1.62-2.9-3.23-4.34-4.85-.53-.59-1.59-.57-2.12,0-.57.63-.56,1.5,0,2.12h0Z" fill="#aa969f"/>
      <path d="m572.29,871.01c-4.81,1.3-9.51,2.99-14.07,5.01-.74.33-.91,1.41-.54,2.05.45.76,1.31.87,2.05.54,4.32-1.91,8.79-3.47,13.35-4.7,1.86-.5,1.07-3.4-.8-2.89h0Z" fill="#aa969f"/>
    </g>
    <g>
      <path d="m836.62,846.84s-46.52-9.13-46.54-23.37c-.02-14.24,56.33-93.69,68.78-88.26,12.45,5.43,19.19,25.2,38.07,37.42,18.88,12.21,54.18,37.89,62.94,46.33,8.77,8.43,21.25,61.11,20.89,74.32-.36,13.21-15.21,6.46-15.21,6.46,0,0-1.09,13.75-5.98,13.99s-14.27-4.08-14.27-4.08c0,0-.68,13.16-6.66,14.21s-11.76-1.44-13.01-3.89-23.92-47.59-23.92-47.59c0,0-28.37-13.64-27.56-12.55s7.63,9.56,11.98,21.53,4.27,23.29-1.47,22.75c-5.74-.54-10.66-8.72-14.26-12.82-3.59-4.1-20.65-11.19-24.95-23.48s-8.83-20.95-8.83-20.95Z" fill="#ffb400"/>
      <g>
        <path d="m913.24,852.2c7.13,5.07,11.25,13.4,14.98,21.07,4.15,8.55,7.61,17.44,10.35,26.54,1.57,5.2,2.89,10.47,3.99,15.79.39,1.89,3.28,1.09,2.89-.8-2.01-9.74-4.8-19.31-8.37-28.59s-7.3-17.76-12.41-25.76c-2.67-4.17-5.86-7.96-9.92-10.84-1.58-1.12-3.08,1.48-1.51,2.59h0Z" fill="#ce430d"/>
        <path d="m943.6,848.88c10.32,12.63,16.68,28.47,18.1,44.71.4,4.59.4,9.21.03,13.8-.16,1.92,2.84,1.91,3,0,1.37-16.86-2.53-34.06-10.86-48.77-2.37-4.18-5.11-8.14-8.15-11.86-1.22-1.5-3.33.64-2.12,2.12h0Z" fill="#ce430d"/>
        <path d="m961.04,843.45c6.15,13.75,11.57,27.82,16.25,42.14.6,1.83,3.49,1.05,2.89-.8-4.76-14.57-10.29-28.87-16.55-42.86-.79-1.76-3.37-.24-2.59,1.51h0Z" fill="#ce430d"/>
      </g>
    </g>
    <path d="m188.8,734.64c-1.01,2.89-2,5.78-2.98,8.62-2.93-1.35-5.87-2.69-8.81-4.01-15.17-6.8-31.62-13.13-48.48-13.08-13.71.04-26.87,5.11-35.79,15.69-7.05,8.36-10.87,19.44-11.81,30.25-2.27,25.88,10.38,48.78,31.82,62.92,15.95,10.52,34.45,16,53.35,18.05-.39,2.96-.82,5.93-1.29,8.88-.74-.08-1.48-.17-2.22-.27-26.05-3.36-52.47-13.07-70.8-32.58-16.29-17.33-23.1-41.16-18.85-64.54,4.24-23.35,20.97-42.6,44.94-46.5,24.62-4,48.51,5.91,70.92,16.57Z" fill="#aa969f"/>
    <path d="m294.86,830.8c-13.08,8.27-27.05,15.06-41.63,20.26-27.99,9.99-58.8,14.32-88.42,10.9.47-2.95.9-5.92,1.29-8.88,9.92,1.07,19.95,1.2,29.78.62,33.48-1.99,66.12-12.77,94.44-30.68,4.92-3.1,9.43,4.69,4.54,7.78Z" fill="#aa969f"/>
    <polygon points="662.11 735.83 728.15 674.68 734.82 694.86 662.11 735.83" fill="#aa969f"/>
    <g>
      <polygon points="656.15 734.94 675.75 571.75 700.75 594.58 656.15 734.94" fill="#fff"/>
      <polygon points="586.41 748.83 508.01 715.92 493.06 732.38 586.41 748.83" fill="#ffb400"/>
      <polygon points="592.69 739.64 565.82 710.53 579.25 705.26 592.69 739.64" fill="#fff"/>
      <polygon points="641.08 702.79 626.15 639.49 641.13 639.49 641.08 702.79" fill="#ffb400"/>
      <polygon points="664.77 746.79 765.45 709 764.5 743.21 664.77 746.79" fill="#ffb400"/>
    </g>
  </g>
</svg>